<svg width="32" height="32" viewBox="0 0 32 32" fill="none" xmlns="http://www.w3.org/2000/svg">
<rect width="32" height="32" rx="16" fill="#CFC3DB"/>
<path d="M28.171 6.5C28.4472 6.5 28.6544 6.59745 28.7928 6.79164C28.9305 6.98655 29 7.20745 29 7.45578C29 7.94666 28.8909 8.43393 28.6733 8.91687C28.4551 9.39837 28.1747 9.86976 27.8321 10.3318C27.4908 10.7923 27.1129 11.2377 26.6984 11.6687C26.2839 12.0982 25.8768 12.5111 25.4769 12.9074L24.9966 13.3839C24.5316 14.7973 24.0226 16.1112 23.4704 17.3254C22.9175 18.5381 22.3001 19.6058 21.6174 20.5277C20.9622 21.3802 20.2362 22.1014 19.4402 22.6904C18.6453 23.2809 17.8054 23.7617 16.9216 24.1313C16.039 24.5009 15.1229 24.7695 14.1739 24.9369C13.2242 25.1059 12.266 25.191 11.2993 25.191C10.6666 25.191 10.0864 25.1196 9.55851 24.9774C9.03188 24.8344 8.55036 24.6554 8.11515 24.4403C7.27157 24.7074 6.42615 24.9355 5.57952 25.1246C4.73289 25.3152 3.87284 25.4401 3 25.5V25.1246C3.81433 25.082 4.62317 24.9918 5.42592 24.8532C6.2305 24.716 7.02837 24.5276 7.82014 24.2872C7.363 24.01 6.95461 23.6837 6.59377 23.3084C6.23415 22.9344 5.93426 22.5287 5.69411 22.0898C5.44055 21.6256 5.24062 21.1117 5.09434 20.5479C4.94927 19.9841 4.87734 19.3575 4.87734 18.6681C4.87734 17.5925 5.07727 16.5161 5.47712 15.4398C5.86234 14.414 6.378 13.5124 7.02532 12.7342C7.67203 11.9546 8.39858 11.302 9.20499 10.7764C10.0126 10.2509 10.8708 9.85532 11.7796 9.58967C12.6878 9.32257 13.5966 9.1883 14.5054 9.1883C14.876 9.1883 15.2576 9.22295 15.6514 9.29225C16.0445 9.36011 16.4242 9.46983 16.7899 9.62143C17.1569 9.77158 17.5025 9.96144 17.8261 10.1903C18.1492 10.4177 18.4332 10.6927 18.677 11.0161C18.9209 11.3381 19.1135 11.7106 19.2549 12.1336C19.3975 12.5552 19.4694 13.0287 19.4694 13.5543C19.4694 13.9758 19.4018 14.3851 19.2671 14.7815C19.1318 15.1763 18.9501 15.5438 18.7209 15.8845C18.4917 16.2252 18.2242 16.5335 17.9188 16.8085C17.6128 17.0843 17.2898 17.3073 16.9484 17.4784L16.8948 17.3629C17.1563 17.1572 17.3976 16.9182 17.6189 16.6468C17.8414 16.3754 18.0322 16.078 18.1919 15.7546C18.3528 15.4312 18.4777 15.0897 18.5673 14.7295C18.6581 14.3678 18.7039 13.9975 18.7039 13.6178C18.7039 12.9212 18.571 12.3169 18.3065 11.8044C18.0413 11.2904 17.6945 10.8681 17.2654 10.5368C16.8363 10.2062 16.3486 9.95855 15.8025 9.79468C15.2576 9.63154 14.7017 9.54924 14.1348 9.54924C13.2846 9.54924 12.4361 9.68712 11.5895 9.96216C10.7422 10.2379 9.94008 10.6342 9.18305 11.1518C8.42723 11.668 7.74517 12.2967 7.13747 13.0374C6.53099 13.7766 6.04276 14.6111 5.67217 15.5409C5.48321 16.0592 5.33815 16.5804 5.23575 17.1059C5.13457 17.63 5.08458 18.1505 5.08458 18.6681C5.08458 19.3402 5.15102 19.9408 5.28451 20.4699C5.41921 20.9991 5.61 21.4921 5.85746 21.9483C6.10432 22.4046 6.42189 22.824 6.81077 23.2073C7.20086 23.5899 7.64704 23.9155 8.14929 24.1833C9.40552 23.779 10.6337 23.2831 11.8333 22.6962C13.0328 22.1108 14.2068 21.4647 15.3563 20.7587C16.2353 20.218 17.0911 19.6527 17.9237 19.0637C18.7575 18.4732 19.5596 17.8697 20.3301 17.2532C21.1005 16.6374 21.8307 16.0224 22.5219 15.4081C23.2125 14.7923 23.8592 14.1866 24.4627 13.5918C24.6236 13.2222 24.7833 12.8028 24.943 12.3328C25.1021 11.8636 25.2624 11.3828 25.4233 10.8919C25.6049 10.3318 25.789 9.78746 25.9743 9.2576C26.1596 8.72846 26.3595 8.25995 26.5741 7.85137C26.7886 7.44134 27.0263 7.11432 27.2884 6.8696C27.5499 6.62344 27.8443 6.5 28.171 6.5ZM18.8136 21.6249C19.9187 20.6186 20.9238 19.478 21.8295 18.2032C22.7347 16.9291 23.5252 15.5813 24.2018 14.1606C23.6197 14.7208 22.9937 15.294 22.3245 15.8787C21.6564 16.4642 20.9548 17.0475 20.2204 17.6286C19.4853 18.2104 18.7185 18.7829 17.9188 19.3467C17.1191 19.9112 16.2938 20.4511 15.4441 20.9666C14.3092 21.6632 13.1602 22.2956 11.9966 22.8637C10.8343 23.4332 9.6536 23.9205 8.45405 24.3248C8.86 24.5052 9.30008 24.654 9.77307 24.7695C10.2461 24.8864 10.7544 24.9456 11.2993 24.9456C12.0125 24.9456 12.7037 24.8633 13.3717 24.7002C14.041 24.5363 14.6895 24.3082 15.3173 24.0158C15.9464 23.7227 16.5516 23.3733 17.1337 22.9676C17.7152 22.5634 18.2754 22.1158 18.8136 21.6249ZM25.4891 12.5725C25.6988 12.3646 25.9268 12.1365 26.1742 11.8881C26.4229 11.6384 26.6704 11.3756 26.9179 11.0998C27.1647 10.8248 27.4006 10.5411 27.6249 10.248C27.8504 9.9535 28.0491 9.65175 28.2198 9.34134C28.3905 9.03165 28.5282 8.71979 28.6343 8.40578C28.7397 8.09248 28.7928 7.77557 28.7928 7.45578C28.7928 7.26736 28.7397 7.10205 28.6343 6.95912C28.5282 6.81691 28.374 6.74544 28.171 6.74544C27.8797 6.74544 27.6109 6.89487 27.364 7.19301C27.1166 7.4897 26.8874 7.86436 26.6765 8.31626C26.465 8.76888 26.2742 9.26482 26.1035 9.80334C25.9329 10.3404 25.778 10.8501 25.6403 11.3309C25.5604 11.6066 25.4824 11.8795 25.4062 12.1509C25.3294 12.4223 25.2514 12.6699 25.1722 12.893L25.4891 12.5725Z" fill="black"/>
</svg>
